<?xml version="1.0" encoding="UTF-8"?>
<!-- Generated by Pixelmator Pro 3.6.17 -->
<svg width="1764" height="1396" viewBox="0 0 1764 1396" xmlns="http://www.w3.org/2000/svg">
    <path id="Path" fill="#ffffff" fill-rule="evenodd" stroke="#e6dfd0" stroke-width="2" d="M 882.125427 63.749268 C 831.354431 63.749268 -0.452089 1236.351807 39.972321 1296.370483 C 72.327019 1344.407959 1704.922119 1342.082642 1723.373291 1293.991333 C 1749.654541 1225.492432 940.794189 63.749268 882.125427 63.749268 Z"/>
    <path id="Shape-copy" fill="#000000" fill-rule="evenodd" stroke="none" d="M 692.365295 553.419617 C 607.771057 623.001587 543.368408 728.270813 527.231262 846.976074 C 496.028625 1076.503784 653.034363 1248.62439 871.981873 1191.788086 C 1078.964722 1138.057739 1211.906494 909.835938 1183.674805 712.567505 C 1169.060669 610.450439 1112.656006 533.67334 1036.102295 494.757507 C 1018.836548 568.144409 953.470459 634.395447 868.929749 650.291748 C 781.996704 666.637878 711.604614 623.225098 692.365295 553.419617 Z"/>
</svg>
